# xmcd
#
# Track frame offsets:
#	150
#	16135
#	36812
#	60086
#	79967
#	98252
#	116621
#	137563
#	156328
#	176840
#	201413
#	223171
#	244482
#	263594
#
# Disc length: 3824 seconds
#
# Revision: 0
# Processed by: cddbd v1.5.2PL0 Copyright (c) Steve Scherf et al.
# Submitted via: EZCDAudioConverter 8.0.2.1
#
DISCID=bc0eee0e
DTITLE=Hồ Ngọc Hà - Love Song Collection. Vẫn Trong Đợi Chờ
DYEAR=2010
DGENRE=
TTITLE0=Cố xóa hết
TTITLE1=Vẫn Trong Đợi Chờ
TTITLE2=Vì sao ta lặng im
TTITLE3=Vì anh đánh mất
TTITLE4=Yêu và được yêu
TTITLE5=Bến bờ yêu thương
TTITLE6=Đừng giận em anh nhé
TTITLE7=Đời bỗng vui
TTITLE8=Yêu thương nhật nhòa
TTITLE9=Tìm lại giấc mơ
TTITLE10=Mãi như bây giờ
TTITLE11=Đã mất nhau rồi
TTITLE12=Dẫu có muộn màng
TTITLE13=Nơi cuối chân trời
EXTD=
EXTT0=
EXTT1=
EXTT2=
EXTT3=
EXTT4=
EXTT5=
EXTT6=
EXTT7=
EXTT8=
EXTT9=
EXTT10=
EXTT11=
EXTT12=
EXTT13=
PLAYORDER=
